<svg width="758" height="136" viewBox="0 0 758 136" fill="none" xmlns="http://www.w3.org/2000/svg">
<path d="M31.25 55H37.9395L19.4336 14.8389H19.0674L0.561523 55H7.25098L9.93652 49.0186H28.5645L31.25 55ZM12.3291 43.7207L19.2627 28.3398L26.1719 43.7207H12.3291ZM52.4414 55.6592C60.4248 55.6592 66.4795 51.167 66.4795 44.1846C66.4795 37.9834 61.6455 34.9805 55.4199 32.2461C50.6348 30.1953 46.9971 29.0967 46.9971 26.0205C46.9971 23.2373 49.8779 20.9912 53.4912 20.9912C56.3477 20.9912 59.0576 22.4805 60.2783 25.1416L64.8682 21.9678C63.2568 17.6465 59.0576 14.9365 53.4424 14.9365C46.3623 14.9365 40.7715 19.4287 40.7715 25.874C40.7715 32.0508 45.8984 34.4434 50.5127 36.4941C55.1025 38.4717 60.2783 40.6689 60.2783 44.3066C60.2783 47.3096 56.9336 49.4336 52.5146 49.4336C48.7305 49.4336 45.459 47.6758 43.7012 44.5996L38.8184 48.0908C41.0645 52.6318 45.9717 55.6592 52.4414 55.6592ZM96.46 15.6445H69.165V21.7725H79.7119V55H85.9131V21.7725H96.46V15.6445ZM130.615 55L119.165 39.2529C123.682 37.7881 126.953 33.3691 126.953 28.291C126.953 21.2842 120.947 15.6445 113.623 15.6445H101.392L101.416 55H107.593V39.7656H112.427L123.022 55H130.615ZM107.568 34.6387V21.7725H113.77C117.432 21.7725 120.581 24.4824 120.581 28.1445C120.581 31.6602 117.48 34.6631 113.77 34.6387H107.568ZM153.223 55.6348C164.429 55.6348 173.608 46.5039 173.608 35.3711C173.608 24.1406 164.429 14.9609 153.247 14.9609C142.041 14.9609 132.91 24.1406 132.91 35.3711C132.91 46.5039 142.041 55.6348 153.223 55.6348ZM153.223 49.3848C145.459 49.3848 139.136 43.0615 139.136 35.3223C139.136 27.5342 145.459 21.1865 153.223 21.1865C160.986 21.1865 167.358 27.5342 167.358 35.3223C167.358 43.0615 160.986 49.3848 153.223 49.3848ZM204.712 15.5469V41.2061L179.59 14.9609H179.272V55.0488H185.449V29.3896L210.62 55.6836H210.913V15.5469H204.712ZM236.914 55.6348C248.12 55.6348 257.3 46.5039 257.3 35.3711C257.3 24.1406 248.12 14.9609 236.938 14.9609C225.732 14.9609 216.602 24.1406 216.602 35.3711C216.602 46.5039 225.732 55.6348 236.914 55.6348ZM236.914 49.3848C229.15 49.3848 222.827 43.0615 222.827 35.3223C222.827 27.5342 229.15 21.1865 236.914 21.1865C244.678 21.1865 251.05 27.5342 251.05 35.3223C251.05 43.0615 244.678 49.3848 236.914 49.3848ZM301.05 14.79L282.251 43.4033L263.428 14.79H262.964V55H269.141V33.1494L282.227 54.3408H282.275L295.337 33.1738V55H301.514V14.79H301.05Z" fill="white"/>
<path d="M33.0078 123L21.5576 107.253C26.0742 105.788 29.3457 101.369 29.3457 96.291C29.3457 89.2842 23.3398 83.6445 16.0156 83.6445H3.78418L3.80859 123H9.98535V107.766H14.8193L25.415 123H33.0078ZM9.96094 102.639V89.7725H16.1621C19.8242 89.7725 22.9736 92.4824 22.9736 96.1445C22.9736 99.6602 19.873 102.663 16.1621 102.639H9.96094ZM60.6201 89.7236V83.6445H37.1826V123H60.6201V116.848H43.3594V105.959H58.252V99.8066H43.3594V89.7236H60.6201ZM65.1855 106.521H84.4727V101.101H65.1855V106.521ZM112.866 83.6445H85.5713V89.7725H96.1182V123H102.319V89.7725H112.866V83.6445ZM140.991 83.6445V100.246H123.95V83.6445H117.798V123H123.95V106.374H140.991V123H147.168V83.6445H140.991ZM154.761 123H160.938V83.6445H154.761V123ZM193.97 83.5469V109.206L168.848 82.9609H168.53V123.049H174.707V97.3896L199.878 123.684H200.171V83.5469H193.97ZM235.986 123L220.63 102.956L234.595 83.6445H227.417L213.892 102.492V83.6445H207.739V123H213.892V103.957L228.442 123H235.986ZM279.468 83.6445H252.173V89.7725H262.72V123H268.921V89.7725H279.468V83.6445ZM307.593 83.6445V100.246H290.552V83.6445H284.399V123H290.552V106.374H307.593V123H313.77V83.6445H307.593ZM344.8 89.7236V83.6445H321.362V123H344.8V116.848H327.539V105.959H342.432V99.8066H327.539V89.7236H344.8ZM380.396 123.732C388.77 123.732 395.288 117.116 395.288 108.083V83.6445H389.062V108.059C389.062 113.503 385.181 117.482 380.371 117.482C375.562 117.482 371.729 113.503 371.729 108.059V83.6445H365.527V108.083C365.527 117.116 372.021 123.732 380.396 123.732ZM427.905 83.5469V109.206L402.783 82.9609H402.466V123.049H408.643V97.3896L433.813 123.684H434.106V83.5469H427.905ZM441.675 123H447.852V83.6445H441.675V123ZM493.53 82.79L474.731 111.403L455.908 82.79H455.444V123H461.621V101.149L474.707 122.341H474.756L487.817 101.174V123H493.994V82.79H493.53ZM529.053 123H535.742L517.236 82.8389H516.87L498.364 123H505.054L507.739 117.019H526.367L529.053 123ZM510.132 111.721L517.065 96.3398L523.975 111.721H510.132ZM573.657 101.516H555.029V107.18H567.212V107.302C567.212 113.308 562.134 117.434 555.371 117.434C546.973 117.434 540.845 111.086 540.845 103.371C540.845 95.2168 547.632 89.2109 554.81 89.2109C558.545 89.2109 562.695 91.1152 565.771 94.1426L569.214 89.0156C565.503 85.4023 559.839 83.0098 554.883 82.9854C543.701 82.9854 534.57 92.1895 534.57 103.371C534.57 114.528 543.652 123.659 555.103 123.659C565.332 123.659 573.828 116.286 573.828 104.592C573.828 103.493 573.755 102.419 573.657 101.516ZM579.517 123H585.693V83.6445H579.517V123ZM618.726 83.5469V109.206L593.604 82.9609H593.286V123.049H599.463V97.3896L624.634 123.684H624.927V83.5469H618.726ZM659.961 123H666.65L648.145 82.8389H647.778L629.272 123H635.962L638.647 117.019H657.275L659.961 123ZM641.04 111.721L647.974 96.3398L654.883 111.721H641.04ZM688.721 100.832C690.186 100.832 693.14 98 693.14 93.752C693.14 88.5273 688.55 83.6445 681.763 83.6445H671.021V123H685.742C693.555 123 698.12 117.043 698.12 111.013C698.12 104.885 693.14 100.832 688.721 100.832ZM682.129 89.6504C684.912 89.6504 687.354 91.75 687.354 94.5576C687.354 97.3652 685.107 99.4648 682.056 99.4404L677.173 99.4648V89.6504H682.129ZM685.181 116.97H677.173V104.909L685.083 104.885C689.551 104.885 692.09 107.619 692.09 110.598C692.09 114.406 688.721 116.97 685.181 116.97ZM709.229 116.848V83.6445H703.052V123H726.782V116.848H709.229ZM755.151 89.7236V83.6445H731.714V123H755.151V116.848H737.891V105.959H752.783V99.8066H737.891V89.7236H755.151Z" fill="white"/>
</svg>
