<svg width="348" height="62" viewBox="0 0 348 62" fill="none" xmlns="http://www.w3.org/2000/svg">
<path d="M218.615 46.5C227.559 46.5 234.809 39.5604 234.809 31C234.809 22.4396 227.559 15.5 218.615 15.5C209.672 15.5 202.421 22.4396 202.421 31C202.421 39.5604 209.672 46.5 218.615 46.5Z" stroke="white" stroke-width="2" stroke-linecap="round" stroke-linejoin="round"/>
<path d="M211.326 17.1449C205.199 12.7526 200.341 10.6349 198.839 12.0706C196.462 14.3452 203.389 24.6644 214.31 35.1172C225.232 45.57 236.013 52.2001 238.388 49.9255C239.26 49.0924 238.88 47.1723 237.507 44.5605" stroke="white" stroke-width="2" stroke-linecap="round" stroke-linejoin="round"/>
<path d="M28.125 49H34.1455L17.4902 12.855H17.1606L0.505371 49H6.52588L8.94287 43.6167H25.708L28.125 49ZM11.0962 38.8486L17.3364 25.0059L23.5547 38.8486H11.0962ZM47.1973 49.5933C54.3823 49.5933 59.8315 45.5503 59.8315 39.2661C59.8315 33.6851 55.481 30.9824 49.8779 28.5215C45.5713 26.6758 42.2974 25.687 42.2974 22.9185C42.2974 20.4136 44.8901 18.3921 48.1421 18.3921C50.7129 18.3921 53.1519 19.7324 54.2505 22.1274L58.3813 19.271C56.9312 15.3818 53.1519 12.9429 48.0981 12.9429C41.7261 12.9429 36.6943 16.9858 36.6943 22.7866C36.6943 28.3457 41.3086 30.499 45.4614 32.3447C49.5923 34.1245 54.2505 36.1021 54.2505 39.376C54.2505 42.0786 51.2402 43.9902 47.2632 43.9902C43.8574 43.9902 40.9131 42.4082 39.3311 39.6396L34.9365 42.7817C36.958 46.8687 41.3745 49.5933 47.1973 49.5933ZM86.814 13.5801H62.2485V19.0952H71.7407V49H77.3218V19.0952H86.814V13.5801ZM117.554 49L107.249 34.8276C111.313 33.5093 114.258 29.5322 114.258 24.9619C114.258 18.6558 108.853 13.5801 102.261 13.5801H91.2524L91.2744 49H96.8335V35.2891H101.184L110.72 49H117.554ZM96.8115 30.6748V19.0952H102.393C105.688 19.0952 108.523 21.5342 108.523 24.8301C108.523 27.9941 105.732 30.6968 102.393 30.6748H96.8115ZM137.9 49.5713C147.986 49.5713 156.248 41.3535 156.248 31.334C156.248 21.2266 147.986 12.9648 137.922 12.9648C127.837 12.9648 119.619 21.2266 119.619 31.334C119.619 41.3535 127.837 49.5713 137.9 49.5713ZM137.9 43.9463C130.913 43.9463 125.222 38.2554 125.222 31.29C125.222 24.2808 130.913 18.5679 137.9 18.5679C144.888 18.5679 150.623 24.2808 150.623 31.29C150.623 38.2554 144.888 43.9463 137.9 43.9463ZM184.241 13.4922V36.5854L161.631 12.9648H161.345V49.0439H166.904V25.9507L189.558 49.6152H189.822V13.4922H184.241ZM283.645 12.811L266.726 38.563L249.785 12.811H249.368V49H254.927V29.3345L266.704 48.4067H266.748L278.503 29.3564V49H284.062V12.811H283.645Z" fill="white"/>
</svg>
