<svg width="38" height="38" viewBox="0 0 38 38" fill="none" xmlns="http://www.w3.org/2000/svg">
<path d="M34.1304 11.3952C33.95 10.7249 33.5966 10.1137 33.1058 9.62281C32.6149 9.13195 32.0037 8.77863 31.3334 8.59822C29.5015 7.89047 11.7539 7.54372 6.60491 8.61801C5.93448 8.79849 5.32324 9.15193 4.83237 9.64293C4.3415 10.1339 3.98823 10.7453 3.80795 11.4158C2.98066 15.044 2.91811 22.8878 3.82853 26.5976C4.00894 27.2679 4.36226 27.8791 4.85312 28.3699C5.34398 28.8608 5.95516 29.2141 6.62549 29.3945C10.2537 30.2297 27.5025 30.3469 31.354 29.3945C32.0243 29.2141 32.6355 28.8608 33.1264 28.3699C33.6172 27.8791 33.9705 27.2679 34.1509 26.5976C35.0329 22.6448 35.0954 15.287 34.1304 11.3952V11.3952Z" stroke="#F8F8F8" stroke-linecap="round" stroke-linejoin="round"/>
<path d="M24.1988 18.996L15.9282 14.2532V23.7389L24.1988 18.996Z" stroke="#F8F8F8" stroke-linecap="round" stroke-linejoin="round"/>
</svg>
